HIERARCHY
ROOT Hips
{
	OFFSET 0.000000 0.000000 0.000000
	CHANNELS 6 Xposition Yposition Zposition Xrotation Yrotation Zrotation
	JOINT LeftUpLeg_virtual
	{
		OFFSET 0.000000 0.000000 0.000000
		CHANNELS 3 Xrotation Yrotation Zrotation
		JOINT LeftUpLeg
		{
			OFFSET 11.394100 -6.187798 -0.413800
			CHANNELS 3 Xrotation Yrotation Zrotation
			JOINT LeftLeg
			{
				OFFSET 0.430247 -32.302673 3.732800
				CHANNELS 3 Xrotation Yrotation Zrotation
				JOINT LeftFoot
				{
					OFFSET -0.430247 -48.264931 -6.423300
					CHANNELS 3 Xrotation Yrotation Zrotation
					JOINT LeftToeBase
					{
						OFFSET 4.230900 -16.068199 23.438400
						CHANNELS 3 Xrotation Yrotation Zrotation
						JOINT LeftToe_End
						{
							OFFSET 4.510700 0.695400 19.974600
							CHANNELS 3 Xrotation Yrotation Zrotation
							End Site
							{
								OFFSET 0 0 0
							}
						}
					}
				}
			}
		}
	}
	JOINT RightUpLeg_virtual
	{
		OFFSET 0.000000 0.000000 0.000000
		CHANNELS 3 Xrotation Yrotation Zrotation
		JOINT RightUpLeg
		{
			OFFSET -11.333700 -6.187798 -0.413800
			CHANNELS 3 Xrotation Yrotation Zrotation
			JOINT RightLeg
			{
				OFFSET -0.430392 -32.302628 3.733000
				CHANNELS 3 Xrotation Yrotation Zrotation
				JOINT RightFoot
				{
					OFFSET 0.430392 -48.264973 -6.423500
					CHANNELS 3 Xrotation Yrotation Zrotation
					JOINT RightToeBase
					{
						OFFSET -4.230900 -16.068199 23.438400
						CHANNELS 3 Xrotation Yrotation Zrotation
						JOINT RightToe_End
						{
							OFFSET -4.510700 0.695400 19.974600
							CHANNELS 3 Xrotation Yrotation Zrotation
							End Site
							{
								OFFSET 0 0 0
							}
						}
					}
				}
			}
		}
	}
	JOINT Spine_virtual
	{
		OFFSET 0.000000 0.000000 0.000000
		CHANNELS 3 Xrotation Yrotation Zrotation
		JOINT Spine
		{
			OFFSET -0.002400 12.777504 0.315300
			CHANNELS 3 Xrotation Yrotation Zrotation
			JOINT Spine1
			{
				OFFSET -0.002067 5.816869 0.032633
				CHANNELS 3 Xrotation Yrotation Zrotation
				JOINT Spine1_split
				{
					OFFSET -0.002067 5.816869 0.032633
					CHANNELS 3 Xrotation Yrotation Zrotation
					JOINT Spine2
					{
						OFFSET -0.002067 5.816869 0.032633
						CHANNELS 3 Xrotation Yrotation Zrotation
						JOINT Neck_virtual
						{
							OFFSET 0.000000 0.000000 0.000000
							CHANNELS 3 Xrotation Yrotation Zrotation
							JOINT Neck
							{
								OFFSET -0.003700 21.199493 -0.826900
								CHANNELS 3 Xrotation Yrotation Zrotation
								JOINT Head
								{
									OFFSET 0.000000 20.442200 4.834800
									CHANNELS 3 Xrotation Yrotation Zrotation
									JOINT HeadTop_End
									{
										OFFSET 0.000000 34.668396 4.968400
										CHANNELS 3 Xrotation Yrotation Zrotation
										End Site
										{
											OFFSET 0 0 0
										}
									}
								}
							}
						}
						JOINT LeftShoulder_virtual
						{
							OFFSET 0.000000 0.000000 0.000000
							CHANNELS 3 Xrotation Yrotation Zrotation
							JOINT LeftShoulder
							{
								OFFSET 3.288150 8.794197 -1.372250
								CHANNELS 3 Xrotation Yrotation Zrotation
								JOINT LeftShoulder_split
								{
									OFFSET 3.288150 8.794197 -1.372250
									CHANNELS 3 Xrotation Yrotation Zrotation
									JOINT LeftArm
									{
										OFFSET 11.953299 -2.279007 -0.146200
										CHANNELS 3 Xrotation Yrotation Zrotation
										JOINT LeftForeArm
										{
											OFFSET 18.448900 0.000000 0.000000
											CHANNELS 3 Xrotation Yrotation Zrotation
											JOINT LeftHand
											{
												OFFSET 29.527798 0.000000 0.000000
												CHANNELS 3 Xrotation Yrotation Zrotation
												End Site
												{
													OFFSET 0 0 0
												}
											}
										}
									}
								}
							}
						}
						JOINT RightShoulder_virtual
						{
							OFFSET 0.000000 0.000000 0.000000
							CHANNELS 3 Xrotation Yrotation Zrotation
							JOINT RightShoulder
							{
								OFFSET -3.249400 8.794197 -1.372250
								CHANNELS 3 Xrotation Yrotation Zrotation
								JOINT RightShoulder_split
								{
									OFFSET -3.249400 8.794197 -1.372250
									CHANNELS 3 Xrotation Yrotation Zrotation
									JOINT RightArm
									{
										OFFSET -11.953299 -2.279007 -0.146200
										CHANNELS 3 Xrotation Yrotation Zrotation
										JOINT RightForeArm
										{
											OFFSET -18.448900 0.000000 0.000000
											CHANNELS 3 Xrotation Yrotation Zrotation
											JOINT RightHand
											{
												OFFSET -29.527802 0.000000 0.000000
												CHANNELS 3 Xrotation Yrotation Zrotation
												End Site
												{
													OFFSET 0 0 0
												}
											}
										}
									}
								}
							}
						}
					}
				}
			}
		}
	}
}
MOTION
Frames: 7
Frame Time: 0.03333333
0.771776 101.025558 -1.721455 0.000000 0.000000 0.000000 -4.058045 -6.885182 -2.842818 -20.541000 11.563808 12.738639 23.519026 3.279798 3.011927 1.607305 0.368189 -6.068340 -2.245568 0.202343 -0.122290 0.000000 0.000000 0.000000 -3.844734 -5.260203 -3.014255 -4.488195 -8.755941 -1.714913 7.945936 -8.617024 -3.944094 3.880709 -1.204381 3.452872 -6.536669 0.013497 0.559158 0.000000 0.000000 0.000000 -4.600714 -6.760546 -3.193620 4.058120 0.443102 2.373240 1.138227 0.191478 1.812827 0.959838 0.240894 -0.099964 0.000000 0.000000 0.000000 0.642606 0.436602 1.776342 5.295215 0.361507 0.051246 -4.796269 1.540746 -0.758836 0.000000 0.000000 0.000000 0.436263 0.489520 1.580791 1.509100 -15.982728 -12.867661 -2.583116 -0.150203 -1.411317 9.338442 -20.532857 -67.749268 -1.799821 -1.174706 0.548854 0.000000 0.000000 0.000000 0.735478 0.461805 1.798424 2.123341 12.604714 15.289769 -0.722414 1.945784 -0.639111 12.826841 28.247145 57.522658 0.595258 10.922237 0.883362 0.000000 0.000000 0.000000 
0.896381 101.029594 -1.713127 0.000000 0.000000 0.000000 -4.049253 -6.997842 -2.838034 -20.518925 11.513448 12.737104 23.651977 3.327139 2.971275 1.522453 0.388275 -6.128640 -2.260447 0.200767 -0.134056 0.000000 0.000000 0.000000 -3.815667 -5.319982 -2.997274 -4.470407 -8.867155 -1.723519 7.816005 -8.521175 -3.987902 3.964887 -1.249235 3.414552 -6.428146 -0.022306 0.624570 0.000000 0.000000 0.000000 -4.602765 -6.881581 -3.237859 4.087504 0.419640 2.390049 1.135344 0.180735 1.821110 0.937781 0.263843 -0.111770 0.000000 0.000000 0.000000 0.639095 0.438534 1.776363 5.305404 0.376416 0.063992 -4.818220 1.616211 -0.773892 0.000000 0.000000 0.000000 0.462376 0.479685 1.598226 1.500303 -16.043085 -12.864648 -2.565715 -0.240199 -1.448583 9.221658 -20.533543 -67.835895 -1.811620 -1.276039 0.556940 0.000000 0.000000 0.000000 0.737727 0.456805 1.819347 2.091677 12.620600 15.360899 -0.807923 1.941608 -0.626273 12.926232 28.243121 57.428517 0.615280 10.703581 0.924556 0.000000 0.000000 0.000000 
0.997904 101.033813 -1.705460 0.000000 0.000000 0.000000 -4.074102 -7.221660 -2.867675 -20.476110 11.482328 12.818191 23.914391 3.435428 2.894522 1.332796 0.438289 -6.216590 -2.269110 0.202718 -0.155779 0.000000 0.000000 0.000000 -3.831091 -5.445260 -3.014159 -4.515380 -8.996315 -1.735000 7.762096 -8.297737 -4.026728 3.961996 -1.381074 3.358197 -6.317440 -0.048650 0.667876 0.000000 0.000000 0.000000 -4.631652 -7.095516 -3.302834 4.134790 0.399579 2.433359 1.132512 0.166116 1.824671 0.909327 0.283729 -0.124437 0.000000 0.000000 0.000000 0.636706 0.434392 1.773073 5.325846 0.405361 0.071278 -4.867087 1.743159 -0.836209 0.000000 0.000000 0.000000 0.483386 0.467280 1.613999 1.483363 -16.122200 -12.864163 -2.476134 -0.291338 -1.512996 9.136007 -20.435921 -67.926668 -1.796080 -1.371855 0.564022 0.000000 0.000000 0.000000 0.726388 0.447080 1.839688 2.064022 12.700790 15.406176 -0.915199 1.942400 -0.623757 13.088632 28.205707 57.260263 0.580523 10.535726 1.013324 0.000000 0.000000 0.000000 
1.061920 101.036209 -1.703077 0.000000 0.000000 0.000000 -4.130533 -7.517363 -2.921888 -20.409847 11.471317 12.964642 24.230391 3.601106 2.786939 1.077266 0.510669 -6.322616 -2.261546 0.208276 -0.185637 0.000000 0.000000 0.000000 -3.884160 -5.627389 -3.053032 -4.647613 -9.141035 -1.750440 7.843097 -7.950618 -4.041943 3.949329 -1.577517 3.338563 -6.269945 -0.068647 0.681769 0.000000 0.000000 0.000000 -4.679319 -7.383049 -3.383100 4.195039 0.386528 2.496961 1.131997 0.152141 1.824184 0.894877 0.282529 -0.107212 0.000000 0.000000 0.000000 0.632816 0.427312 1.767105 5.348533 0.442672 0.075545 -4.939152 1.897558 -0.926185 0.000000 0.000000 0.000000 0.500855 0.454959 1.626502 1.454839 -16.214082 -12.866059 -2.362619 -0.255042 -1.593669 9.092948 -20.217976 -67.989977 -1.765634 -1.414622 0.570457 0.000000 0.000000 0.000000 0.710530 0.434592 1.855736 2.040510 12.835746 15.410872 -1.013288 1.934190 -0.622157 13.303960 28.193129 57.042523 0.513824 10.430139 1.118525 0.000000 0.000000 0.000000 
1.102540 101.022141 -1.710207 0.000000 0.000000 0.000000 -4.206902 -7.847955 -2.997361 -20.312913 11.473747 13.157083 24.537311 3.814458 2.656527 0.806392 0.588181 -6.445559 -2.242186 0.214646 -0.216576 0.000000 0.000000 0.000000 -3.964846 -5.863389 -3.110826 -4.865134 -9.298044 -1.761610 8.059413 -7.488380 -4.042511 3.949107 -1.828801 3.381871 -6.359415 -0.086540 0.654957 0.000000 0.000000 0.000000 -4.741112 -7.727950 -3.473916 4.259979 0.384626 2.575075 1.136499 0.143111 1.821542 0.902311 0.251937 -0.076967 0.000000 0.000000 0.000000 0.628476 0.422072 1.757963 5.368028 0.483399 0.081460 -5.023559 2.051754 -1.015159 0.000000 0.000000 0.000000 0.520532 0.446139 1.635773 1.419122 -16.309898 -12.854709 -2.236863 -0.135820 -1.681373 9.064837 -19.910297 -68.009293 -1.734942 -1.398928 0.570795 0.000000 0.000000 0.000000 0.700236 0.424388 1.864834 2.021065 13.011294 15.357892 -1.109659 1.902235 -0.610752 13.569770 28.267523 56.787456 0.446343 10.395343 1.209383 0.000000 0.000000 0.000000 
1.137974 100.989876 -1.724361 0.000000 0.000000 0.000000 -4.291324 -8.185054 -3.086992 -20.182900 11.476930 13.373685 24.809434 4.057213 2.516644 0.579489 0.648066 -6.587421 -2.232394 0.220742 -0.237783 0.000000 0.000000 0.000000 -4.056110 -6.130090 -3.181673 -5.134383 -9.458618 -1.757394 8.407209 -6.943762 -4.043366 3.919102 -2.143326 3.445450 -6.527453 -0.105612 0.598774 0.000000 0.000000 0.000000 -4.812311 -8.101150 -3.570876 4.320961 0.394751 2.662413 1.148611 0.143200 1.819896 0.918609 0.179371 -0.040247 0.000000 0.000000 0.000000 0.626718 0.422938 1.747332 5.388616 0.523121 0.089235 -5.102191 2.165222 -1.082389 0.000000 0.000000 0.000000 0.547448 0.442859 1.642523 1.381618 -16.397794 -12.819424 -2.129722 0.030373 -1.792992 9.036547 -19.550348 -67.985948 -1.712157 -1.327954 0.564293 0.000000 0.000000 0.000000 0.698849 0.419688 1.868023 2.003678 13.212764 15.245100 -1.195082 1.857173 -0.581467 13.855897 28.445592 56.541327 0.402445 10.426588 1.258203 0.000000 0.000000 0.000000 
1.176002 100.955948 -1.734175 0.000000 0.000000 0.000000 -4.380683 -8.536453 -3.180385 -20.014032 11.468981 13.600425 25.047028 4.314378 2.382048 0.431260 0.676942 -6.740167 -2.230434 0.224714 -0.247209 0.000000 0.000000 0.000000 -4.148529 -6.439906 -3.259145 -5.447189 -9.622611 -1.730397 8.868901 -6.365578 -4.048565 3.833728 -2.534001 3.452384 -6.626411 -0.125324 0.540811 0.000000 0.000000 0.000000 -4.891474 -8.494817 -3.670747 4.369682 0.411988 2.750357 1.166241 0.152199 1.821722 0.927691 0.078402 -0.022970 0.000000 0.000000 0.000000 0.627795 0.431172 1.736202 5.421858 0.557912 0.100437 -5.166604 2.210404 -1.123414 0.000000 0.000000 0.000000 0.585420 0.444725 1.647584 1.354985 -16.468868 -12.743893 -2.062305 0.230563 -1.899881 8.991801 -19.166506 -67.949570 -1.697032 -1.212750 0.550708 0.000000 0.000000 0.000000 0.713222 0.422911 1.871283 1.995866 13.424394 15.090241 -1.286572 1.806904 -0.532028 14.101390 28.669856 56.329277 0.381778 10.563937 1.256451 0.000000 0.000000 0.000000 
